<svg xmlns="http://www.w3.org/2000/svg" xmlns:xlink="http://www.w3.org/1999/xlink" width="500" zoomAndPan="magnify" viewBox="0 0 375 374.999991" height="500" preserveAspectRatio="xMidYMid meet" version="1.0"><defs><g/><clipPath id="b7332e8d6d"><path d="M 332.632812 287.570312 L 375 287.570312 L 375 329.9375 L 332.632812 329.9375 Z M 332.632812 287.570312 " clip-rule="nonzero"/></clipPath><clipPath id="c188434a00"><path d="M 353.816406 287.570312 C 342.117188 287.570312 332.632812 297.054688 332.632812 308.753906 C 332.632812 320.453125 342.117188 329.9375 353.816406 329.9375 C 365.515625 329.9375 375 320.453125 375 308.753906 C 375 297.054688 365.515625 287.570312 353.816406 287.570312 " clip-rule="nonzero"/></clipPath></defs><g clip-path="url(#b7332e8d6d)"><g clip-path="url(#c188434a00)"><path fill="#000000" d="M 332.632812 287.570312 L 375 287.570312 L 375 329.9375 L 332.632812 329.9375 Z M 332.632812 287.570312 " fill-opacity="1" fill-rule="nonzero"/></g></g><g fill="#000000" fill-opacity="1"><g transform="translate(45.553301, 287.234022)"><g><path d="M 12.125 -274.15625 L 96.390625 -274.15625 C 109.785156 -274.15625 120.15625 -271.125 127.5 -265.0625 C 134.84375 -259 139.789062 -250.488281 142.34375 -239.53125 C 144.894531 -228.570312 146.171875 -214.582031 146.171875 -197.5625 C 146.171875 -182.03125 144.148438 -169.898438 140.109375 -161.171875 C 136.066406 -152.453125 129.046875 -146.390625 119.046875 -142.984375 C 127.347656 -141.273438 133.359375 -137.125 137.078125 -130.53125 C 140.796875 -123.9375 142.65625 -115 142.65625 -103.71875 L 142.03125 0 L 88.40625 0 L 88.40625 -107.234375 C 88.40625 -114.890625 86.914062 -119.78125 83.9375 -121.90625 C 80.957031 -124.039062 75.53125 -125.109375 67.65625 -125.109375 L 67.65625 0 L 12.125 0 Z M 81.0625 -172.65625 C 88.726562 -172.65625 92.5625 -180.957031 92.5625 -197.5625 C 92.5625 -204.789062 92.238281 -210.210938 91.59375 -213.828125 C 90.957031 -217.453125 89.785156 -219.953125 88.078125 -221.328125 C 86.378906 -222.710938 83.9375 -223.40625 80.75 -223.40625 L 67.984375 -223.40625 L 67.984375 -172.65625 Z M 81.0625 -172.65625 "/></g></g></g><g fill="#000000" fill-opacity="1"><g transform="translate(180.23452, 287.234022)"><g><path d="M 89.6875 0.3125 C 81.601562 1.800781 77.023438 2.546875 75.953125 2.546875 C 53.828125 2.546875 37.019531 -3.78125 25.53125 -16.4375 C 14.039062 -29.09375 8.296875 -47.65625 8.296875 -72.125 L 8.296875 -204.578125 C 8.296875 -228.191406 14.09375 -246.113281 25.6875 -258.34375 C 37.289062 -270.582031 54.046875 -276.703125 75.953125 -276.703125 C 97.867188 -276.703125 114.625 -270.582031 126.21875 -258.34375 C 137.820312 -246.113281 143.625 -228.191406 143.625 -204.578125 L 143.625 -72.125 C 143.625 -49.570312 138.515625 -31.703125 128.296875 -18.515625 L 151.921875 -3.515625 L 133.40625 29.046875 Z M 75.953125 -47.875 C 81.273438 -47.875 84.679688 -50.425781 86.171875 -55.53125 C 87.660156 -60.632812 88.40625 -67.234375 88.40625 -75.328125 L 88.40625 -203.625 C 88.40625 -210.644531 87.5 -216.175781 85.6875 -220.21875 C 83.882812 -224.257812 80.535156 -226.28125 75.640625 -226.28125 C 66.910156 -226.28125 62.546875 -218.832031 62.546875 -203.9375 L 62.546875 -74.359375 C 62.546875 -66.703125 63.394531 -60.375 65.09375 -55.375 C 66.800781 -50.375 70.421875 -47.875 75.953125 -47.875 Z M 75.953125 -47.875 "/></g></g></g></svg>